<?xml version="1.0" encoding="UTF-8"?>
<svg version="1.1" xmlns="http://www.w3.org/2000/svg" width="788" height="788">
<path d="M0 0 C5.86583687 0.5989763 8.14826257 3.80698458 11.84375 8.09375 C20.00718914 19.09664623 20.9784031 30.75414856 20 44 C18.57042817 52.68368291 14.63727602 59.9820248 10.17407227 67.44580078 C6.32838209 73.80071371 6.32838209 73.80071371 5 81 C14.64060092 78.18815807 19.09121298 69.76684425 23.8125 61.4375 C24.35519531 60.42558594 24.89789063 59.41367188 25.45703125 58.37109375 C27 56 27 56 30 55 C32.71789215 67.15771397 35.19949027 82.86833332 28.43359375 94.0234375 C27.11679486 95.83896948 25.75378259 97.60647036 24.375 99.375 C20.53265895 104.56338409 18.60902995 111.23897825 19.27734375 117.66796875 C20.35783896 121.58716143 21.43588571 123.54333605 24.625 126.125 C30.68900164 127.69714857 35.7635562 126.99127532 41.25 123.9375 C48.34774289 118.91404778 50.27858735 112.8804959 51.75 104.625 C51.97733772 103.22189754 52.20149792 101.81827506 52.421875 100.4140625 C53 97 53 97 54 95 C54.99 95.33 55.98 95.66 57 96 C57.9140625 97.85546875 57.9140625 97.85546875 58.625 100.1875 C58.86476563 100.94417969 59.10453125 101.70085937 59.3515625 102.48046875 C64.4027765 122.10717374 58.93670158 137.02723994 49.87695312 154.11865234 C47.30764699 159.06334738 47.30764699 159.06334738 46.25 164.5 C46.1675 165.655 46.085 166.81 46 168 C49.0286516 166.96160516 51.03787926 165.96780263 53.5 163.875 C56 162 56 162 58.6875 161.625 C61 162 61 162 63 164 C62.8125 166.0625 62.8125 166.0625 62 168 C61.01 168.33 60.02 168.66 59 169 C55.79268282 175.6522134 55.73998985 181.73754165 55.93481445 188.97070312 C56.03775314 192.80790691 55.95425175 196.27107776 55 200 C55.66 200.33 56.32 200.66 57 201 C52.5260674 218.47890438 43.00724242 230.99321091 28.0703125 241.07421875 C24.32356627 242.74965055 20.83537673 242.13640792 17 241 C16.07196201 251.67243691 22.3656262 260.86518421 27.5 269.8125 C28.06847656 270.82248047 28.63695312 271.83246094 29.22265625 272.87304688 C32.39460082 278.47310829 32.39460082 278.47310829 36.18554688 283.65893555 C38 286 38 286 38.125 288.625 C37 291 37 291 34.5 292.8125 C30.16076765 294.28473955 26.53073623 294.87098809 22 294 C20.14153051 292.91485338 18.59797992 291.66500421 16.9453125 290.2890625 C14.52532555 288.68545669 12.32489181 288.20137199 9.5 287.5625 C2.89566875 285.95677661 -0.79014735 282.87280845 -4.875 277.5625 C-6.26543636 274.39539496 -6.66389925 271.42822764 -7 268 C-8.32 268 -9.64 268 -11 268 C-11.94369924 278.72521675 -10.59829203 286.87678877 -6.48999023 296.81933594 C-4.17237264 302.60069115 -3.20628682 307.76137223 -4 314 C-7.05044135 320.34491801 -12.55228442 325.22361201 -19.0625 327.875 C-22.46324593 328.98221961 -25.41117478 329.50076631 -29 329 C-30.66015625 327.76171875 -30.66015625 327.76171875 -32 326 C-32.1953125 323.87109375 -32.1953125 323.87109375 -32.125 321.4375 C-32.67540208 313.57133698 -38.58632081 309.2280811 -44.01171875 304.09765625 C-49.17110296 299.1621065 -53.4920999 293.25481255 -54.203125 285.8984375 C-54.31143885 280.06754186 -53.63885551 274.64487536 -52.5 268.9375 C-51.26916007 262.73582608 -50.81457665 256.88247843 -50.9375 250.5625 C-51.08879541 241.26962173 -50.37472473 234.37213318 -45.875 226.0625 C-42.80641643 220.24044414 -41.92798529 215.50788729 -43 209 C-44.33317714 205.44486095 -45.44776951 204.37713302 -48.5625 202.25 C-53.0176456 200.62994706 -57.29117693 200.26987326 -62 200 C-62.28875 200.763125 -62.5775 201.52625 -62.875 202.3125 C-64 205 -64 205 -66 208 C-66.37569856 211.75698557 -66.1642235 212.75366476 -64 216 C-63.25411674 221.055431 -63.25411674 221.055431 -64 224 C-66.78161658 227.39892721 -70.3759755 229.58398367 -74 232 C-74.7107529 234.46225785 -75.23801039 236.7774296 -75.68359375 239.2890625 C-75.89605492 240.39318985 -75.89605492 240.39318985 -76.11280823 241.5196228 C-76.56623543 243.88601178 -77.0027323 246.25511819 -77.4375 248.625 C-78.01309975 251.70176005 -78.59584897 254.77710012 -79.18359375 257.8515625 C-79.40285271 258.99995857 -79.40285271 258.99995857 -79.62654114 260.17155457 C-81.12098449 267.86068124 -83.00788935 275.4267032 -85 283 C-85.29430908 284.12599609 -85.58861816 285.25199219 -85.8918457 286.41210938 C-86.72971454 289.59021602 -87.58064716 292.76446298 -88.4375 295.9375 C-88.7368042 297.05141113 -89.0361084 298.16532227 -89.34448242 299.31298828 C-90.87862988 304.98781653 -92.46308387 310.63939999 -94.17163086 316.26416016 C-98.88910661 331.80217744 -99.47898488 345.28678399 -96.85058594 361.23681641 C-95.59488545 368.87640319 -94.66704141 376.37520024 -94.5625 384.125 C-94.54050537 384.85041992 -94.51851074 385.57583984 -94.49584961 386.32324219 C-94.54989553 401.39714114 -100.2276138 416.56940453 -104.97436523 430.69946289 C-105.56855982 432.49020276 -106.16199171 434.28119585 -106.75473022 436.07241821 C-108.34768296 440.87832638 -109.9517787 445.68044177 -111.55859256 450.4817307 C-113.24729758 455.53251568 -114.92712253 460.58625455 -116.6084137 465.63951111 C-119.42885186 474.11169339 -122.25680664 482.58133858 -125.08911133 491.04956055 C-128.35714216 500.82092687 -131.61211591 510.59657059 -134.86043972 520.37450415 C-137.66072804 528.80263596 -140.46805372 537.2283995 -143.2812286 545.65223879 C-144.95676113 550.66951439 -146.62989626 555.68755392 -148.29665947 560.70775032 C-149.86201193 565.42119948 -151.43621068 570.13160341 -153.01714706 574.83984756 C-153.59385975 576.56208753 -154.16755091 578.28534286 -154.7379055 580.00969887 C-162.29889019 602.8524561 -162.29889019 602.8524561 -169 607.5 C-169.639375 607.9640625 -170.27875 608.428125 -170.9375 608.90625 C-185.61565382 616.69011945 -210.94373522 608.37593024 -225.5 603.9375 C-245.46283993 597.61404545 -270.43215821 588.92307311 -282.13671875 570.1796875 C-287.47248269 556.70748715 -279.9236435 540.05573731 -275.74731445 527.29553223 C-274.94747393 524.83865521 -274.15904416 522.37833197 -273.37304688 519.91699219 C-258.69364929 473.9548409 -242.98371891 428.30398121 -226.44726562 382.97705078 C-225.08026807 379.2282426 -223.73523227 375.47174295 -222.390625 371.71484375 C-214.76744908 350.59755519 -205.6929303 336.54924656 -186.87133789 323.99707031 C-173.58276556 315.09862961 -166.05722992 305.70986085 -159.89746094 291.02416992 C-157.89915349 286.51710599 -155.60246146 282.14691611 -153.375 277.75 C-152.38095488 275.7873981 -151.38868399 273.82389626 -150.3984375 271.859375 C-149.96192871 270.99795898 -149.52541992 270.13654297 -149.07568359 269.24902344 C-147.90398628 266.91872151 -147.90398628 266.91872151 -147 264 C-146.34 264 -145.68 264 -145 264 C-144.72615479 263.11876465 -144.45230957 262.2375293 -144.17016602 261.32958984 C-143.08858022 258.25204612 -141.83903912 255.58294264 -140.27734375 252.7265625 C-139.74262451 251.74518311 -139.20790527 250.76380371 -138.65698242 249.75268555 C-138.08955322 248.72054932 -137.52212402 247.68841309 -136.9375 246.625 C-136.35911377 245.5522583 -135.78072754 244.4795166 -135.18481445 243.37426758 C-132.63417159 238.66753497 -130.07486415 234.01499854 -127.140625 229.53515625 C-121.29997964 220.48075328 -120.16557704 213.84674803 -120.9765625 203.08203125 C-121.18021226 199.22929242 -120.54525522 197.03695225 -118 194 C-116.01612292 192.96838392 -114.01723344 191.96476382 -112 191 C-111.67 190.01 -111.34 189.02 -111 188 C-115.09363848 184.85447942 -119.20773493 181.83847567 -123.5625 179.0625 C-133.72228286 172.22552283 -138.04821603 163.93564709 -143 153 C-143.28552734 152.37867188 -143.57105469 151.75734375 -143.86523438 151.1171875 C-148.22772958 141.35702873 -149.35381941 126.83985246 -145.5 116.6875 C-144.71698866 115.09918519 -143.87673772 113.53856481 -143 112 C-142.38253906 110.85789062 -141.76507813 109.71578125 -141.12890625 108.5390625 C-138.3895546 103.55400704 -135.58585834 98.63483667 -132.1875 94.0625 C-128.66620786 89.132691 -126.81938535 83.73806149 -125 78 C-123.125 78.3125 -123.125 78.3125 -121 79 C-118.60259354 82.59610969 -118.76012308 84.30092327 -118.8125 88.5625 C-118.82216797 90.29693359 -118.82216797 90.29693359 -118.83203125 92.06640625 C-119 95 -119 95 -120 97 C-119.60061233 99.09821215 -119.60061233 99.09821215 -119 101 C-118.69449219 100.34515625 -118.38898438 99.6903125 -118.07421875 99.015625 C-112.20074595 87.30176939 -103.68732779 79.11261461 -93.51953125 71.09765625 C-85.42377318 64.35746697 -81.91930537 58.57321541 -80.875 48.25 C-80.74544922 47.06083984 -80.74544922 47.06083984 -80.61328125 45.84765625 C-80.40199946 43.89916859 -80.20007533 41.94967024 -80 40 C-74.60843432 40.78588923 -72.30395882 42.81308667 -69 47 C-64.33455767 54.93125195 -65.36844065 63.08006035 -67.5 71.6875 C-67.98701506 73.46194837 -68.48229646 75.23426114 -69 77 C-68.01 77 -67.02 77 -66 77 C-65.82984375 76.41992188 -65.6596875 75.83984375 -65.484375 75.2421875 C-62.54025695 65.75210484 -57.77345035 58.94550276 -49 54 C-42.34272477 50.79541099 -35.53698252 48.5236613 -28.4375 46.5625 C-18.88635764 43.87703573 -9.5978721 40.65125688 -4 32 C1.52842608 21.35825151 1.73530879 11.7133343 0 0 Z M21 216 C17.59972161 219.50331713 16.45038771 222.15833214 16 227 C16.66 227 17.32 227 18 227 C18.83848804 225.54462432 19.67063934 224.08559627 20.5 222.625 C20.9640625 221.81289063 21.428125 221.00078125 21.90625 220.1640625 C23.15035859 218.10663126 23.15035859 218.10663126 23 216 C22.34 216 21.68 216 21 216 Z M-122 243 C-122.99 244.485 -122.99 244.485 -124 246 C-123.67 246.99 -123.34 247.98 -123 249 C-122.34 247.02 -121.68 245.04 -121 243 C-121.33 243 -121.66 243 -122 243 Z M-125 249 C-124 251 -124 251 -124 251 Z M-127 251 C-126.34 251.66 -125.68 252.32 -125 253 C-125 252.34 -125 251.68 -125 251 C-125.66 251 -126.32 251 -127 251 Z M-134 271 C-133 273 -133 273 -133 273 Z M-147 298 C-146 300 -146 300 -146 300 Z M-161 321 C-161 321.99 -161 322.98 -161 324 C-160.34 323.34 -159.68 322.68 -159 322 C-159.66 321.67 -160.32 321.34 -161 321 Z M-163 324 C-162 326 -162 326 -162 326 Z M-168 326 C-172.455 329.465 -172.455 329.465 -177 333 C-176.67 333.99 -176.34 334.98 -176 336 C-174.68 335.67 -173.36 335.34 -172 335 C-172 334.34 -172 333.68 -172 333 C-171.38125 332.731875 -170.7625 332.46375 -170.125 332.1875 C-167.7004767 331.04443152 -167.7004767 331.04443152 -166 328 C-166.66 327.34 -167.32 326.68 -168 326 Z M-151 332 C-151 332.33 -151 332.66 -151 333 C-149.02 333 -147.04 333 -145 333 C-145 332.67 -145 332.34 -145 332 C-146.98 332 -148.96 332 -151 332 Z M-192 347 C-193.36363208 348.97946592 -194.69418644 350.9819245 -196 353 C-197.75 354.875 -197.75 354.875 -199 356 C-198.67 356.66 -198.34 357.32 -198 358 C-196.84501103 356.92643323 -195.70132133 355.84070212 -194.5625 354.75 C-193.92441406 354.14671875 -193.28632813 353.5434375 -192.62890625 352.921875 C-190.91483694 350.89951984 -190.40641122 349.58729395 -190 347 C-190.66 347 -191.32 347 -192 347 Z M-209 375 C-208 377 -208 377 -208 377 Z M-213 386 C-212 388 -212 388 -212 388 Z M-216 399 C-216.33 400.32 -216.66 401.64 -217 403 C-216.34 401.68 -215.68 400.36 -215 399 C-215.33 399 -215.66 399 -216 399 Z M-233 446 C-234.6230253 450.25078054 -236.20632123 454.51002832 -237.6875 458.8125 C-238.06455078 459.90498047 -238.06455078 459.90498047 -238.44921875 461.01953125 C-239.13396894 463.13911302 -239.13396894 463.13911302 -239 466 C-238.01 466.33 -237.02 466.66 -236 467 C-235.16193384 464.06377536 -234.32937556 461.12617933 -233.5 458.1875 C-233.14228516 456.93743164 -233.14228516 456.93743164 -232.77734375 455.66210938 C-232.55175781 454.85966797 -232.32617188 454.05722656 -232.09375 453.23046875 C-231.88427734 452.49207764 -231.67480469 451.75368652 -231.45898438 450.99291992 C-230.88778387 448.85360363 -230.88778387 448.85360363 -231 446 C-231.66 446 -232.32 446 -233 446 Z M-240 467 C-240.66 468.98 -241.32 470.96 -242 473 C-240.68 473.33 -239.36 473.66 -238 474 C-237.67 471.69 -237.34 469.38 -237 467 C-237.99 467 -238.98 467 -240 467 Z M-243 475 C-242 477 -242 477 -242 477 Z M-244 478 C-244.33 479.98 -244.66 481.96 -245 484 C-244.34 483.34 -243.68 482.68 -243 482 C-243.3185177 479.89179203 -243.3185177 479.89179203 -244 478 Z M-241 478 C-240 480 -240 480 -240 480 Z M-242 481 C-242.33 482.32 -242.66 483.64 -243 485 C-242.34 483.68 -241.68 482.36 -241 481 C-241.33 481 -241.66 481 -242 481 Z M-246 484 C-245 486 -245 486 -245 486 Z M-244 485 C-244.33 485.99 -244.66 486.98 -245 488 C-244.01 488.495 -244.01 488.495 -243 489 C-243.33 487.68 -243.66 486.36 -244 485 Z M-247 486 C-246 489 -246 489 -246 489 Z M-248 490 C-247 492 -247 492 -247 492 Z M-245 490 C-244 493 -244 493 -244 493 Z M-247 494 C-247.99 494.33 -248.98 494.66 -250 495 C-251.65049717 499.43028188 -252.22973141 503.29050618 -252 508 C-251.01 508 -250.02 508 -249 508 C-247.68 503.71 -246.36 499.42 -245 495 C-245.66 494.67 -246.32 494.34 -247 494 Z M-253 508 C-252 510 -252 510 -252 510 Z M-255 514 C-254 516 -254 516 -254 516 Z M-254 518 C-253 521 -253 521 -253 521 Z M-257 520 C-257.41713515 521.43146378 -257.8080497 522.87058886 -258.1875 524.3125 C-258.40792969 525.11300781 -258.62835938 525.91351562 -258.85546875 526.73828125 C-259.26194505 529.08969364 -259.26194505 529.08969364 -257.55078125 530.79296875 C-257.03902344 531.19128906 -256.52726562 531.58960938 -256 532 C-254.80712589 528.12315913 -254 525.08378077 -254 521 C-254.99 520.67 -255.98 520.34 -257 520 Z M-260 530 C-260.99 533.3 -261.98 536.6 -263 540 C-261.02 539.67 -259.04 539.34 -257 539 C-257 536.69 -257 534.38 -257 532 C-257.33 532.66 -257.66 533.32 -258 534 C-258 532.68 -258 531.36 -258 530 C-258.66 530 -259.32 530 -260 530 Z M-264 540 C-263 542 -263 542 -263 542 Z M-260 541 C-260.33 541.99 -260.66 542.98 -261 544 C-263.0625 544.6875 -263.0625 544.6875 -265 545 C-265.042721 546.66611905 -265.04063832 548.33382885 -265 550 C-264.67 550.33 -264.34 550.66 -264 551 C-263.9549714 552.66605828 -263.96125079 554.33378384 -264 556 C-264 557.32 -264 558.64 -264 560 C-261.82137181 562.00719496 -261.82137181 562.00719496 -259 563 C-256.69712207 562.30859649 -256.69712207 562.30859649 -255 561 C-255.83333333 558.83333333 -255.83333333 558.83333333 -258 558 C-257.79375 557.05125 -257.5875 556.1025 -257.375 555.125 C-257.189375 553.578125 -257.189375 553.578125 -257 552 C-257.66 551.34 -258.32 550.68 -259 550 C-259.33 549.67 -259.66 549.34 -260 549 C-259.67 548.236875 -259.34 547.47375 -259 546.6875 C-257.82563314 544.00930865 -257.82563314 544.00930865 -258 541 C-258.66 541 -259.32 541 -260 541 Z M-266 555 C-265 557 -265 557 -265 557 Z " fill="#F1F1F1" transform="translate(471,72)"/>
<path d="M0 0 C5.86583687 0.5989763 8.14826257 3.80698458 11.84375 8.09375 C20.00718914 19.09664623 20.9784031 30.75414856 20 44 C18.57042817 52.68368291 14.63727602 59.9820248 10.17407227 67.44580078 C6.32838209 73.80071371 6.32838209 73.80071371 5 81 C14.64060092 78.18815807 19.09121298 69.76684425 23.8125 61.4375 C24.35519531 60.42558594 24.89789063 59.41367188 25.45703125 58.37109375 C27 56 27 56 30 55 C32.71789215 67.15771397 35.19949027 82.86833332 28.43359375 94.0234375 C27.11679486 95.83896948 25.75378259 97.60647036 24.375 99.375 C20.53265895 104.56338409 18.60902995 111.23897825 19.27734375 117.66796875 C20.35783896 121.58716143 21.43588571 123.54333605 24.625 126.125 C30.68900164 127.69714857 35.7635562 126.99127532 41.25 123.9375 C48.34774289 118.91404778 50.27858735 112.8804959 51.75 104.625 C51.97733772 103.22189754 52.20149792 101.81827506 52.421875 100.4140625 C53 97 53 97 54 95 C54.99 95.33 55.98 95.66 57 96 C57.9140625 97.85546875 57.9140625 97.85546875 58.625 100.1875 C58.86476563 100.94417969 59.10453125 101.70085937 59.3515625 102.48046875 C64.4027765 122.10717374 58.93670158 137.02723994 49.87695312 154.11865234 C47.30764699 159.06334738 47.30764699 159.06334738 46.25 164.5 C46.1675 165.655 46.085 166.81 46 168 C49.0286516 166.96160516 51.03787926 165.96780263 53.5 163.875 C56 162 56 162 58.6875 161.625 C61 162 61 162 63 164 C62.8125 166.0625 62.8125 166.0625 62 168 C61.01 168.33 60.02 168.66 59 169 C58.29618843 170.98723268 57.6288189 172.98777953 57 175 C56.34 175.33 55.68 175.66 55 176 C54.99589111 176.84594727 54.99178223 177.69189453 54.98754883 178.56347656 C54.96025875 181.76230986 54.91085267 184.95989782 54.84741211 188.15820312 C54.82449789 189.5311335 54.80990009 190.90423301 54.80444336 192.27734375 C54.72594526 208.79817423 49.51865518 219.53412849 37.88671875 231.1015625 C28.04609397 240.08232686 28.04609397 240.08232686 22.6875 239.9375 C21 239 21 239 19 236 C18.05600017 229.27400122 19.92223358 226.03047242 23.53125 220.4296875 C28.01802006 213.00742426 28.04707149 203.65254997 26.5 195.30078125 C25.14578621 190.46424443 25.14578621 190.46424443 21.3125 187.4375 C20.549375 187.293125 19.78625 187.14875 19 187 C18.34 188.65 17.68 190.3 17 192 C14.6875 191.9375 14.6875 191.9375 12 191 C9.14218002 185.74486184 8.55443298 181.47599829 8.6875 175.5625 C8.68427734 174.85029297 8.68105469 174.13808594 8.67773438 173.40429688 C8.71466935 169.70744159 9.06311604 166.37626708 10.0078125 162.796875 C10.85722514 159.54636677 11.24581629 157.01152842 11.1875 153.6875 C11.18105469 152.86636719 11.17460937 152.04523438 11.16796875 151.19921875 C11.0761095 148.82322401 11.0761095 148.82322401 10 146 C8.72125 146.309375 7.4425 146.61875 6.125 146.9375 C4.41902841 147.30287344 2.71048725 147.65638661 1 148 C0.13761719 148.1753125 -0.72476563 148.350625 -1.61328125 148.53125 C-7.79172702 149.50630062 -7.79172702 149.50630062 -10.9296875 148.19140625 C-13.86886055 146.04679433 -14.9825966 144.05528138 -16.0625 140.625 C-15.95565071 134.4277412 -13.89013523 130.83400244 -9.8125 126.4375 C-7.59788625 123.9737422 -7.02524575 123.11934357 -6.3125 119.75 C-6.73284942 116.85444248 -6.73284942 116.85444248 -9.125 115.375 C-10.07375 114.92125 -11.0225 114.4675 -12 114 C-16.20462056 111.47722767 -19.14761869 109.63095326 -21 105 C-21.64537922 99.46817812 -20.78494818 95.24328527 -19 90 C-18.56564043 84.8549477 -18.56564043 84.8549477 -20 80 C-23.34333644 81.11444548 -24.1929664 82.06304534 -26.4375 84.6875 C-27.01371094 85.35136719 -27.58992188 86.01523438 -28.18359375 86.69921875 C-32.61928836 92.31776526 -34.84596463 97.06469786 -36.5 103.9375 C-38.22961058 111.08854514 -39.91192328 117.51611221 -45.875 122.3125 C-53.02203759 126.1719003 -59.00691773 126.23280822 -67 126 C-67.33 125.34 -67.66 124.68 -68 124 C-67.37351562 123.67386719 -66.74703125 123.34773438 -66.1015625 123.01171875 C-65.28429687 122.57472656 -64.46703125 122.13773437 -63.625 121.6875 C-62.81289063 121.25824219 -62.00078125 120.82898438 -61.1640625 120.38671875 C-58.73165957 119.03221276 -58.73165957 119.03221276 -57 116 C-56.60986284 114.0103005 -56.26797351 112.00980131 -56 110 C-57.010625 110.433125 -58.02125 110.86625 -59.0625 111.3125 C-60.03316406 111.71855469 -60.03316406 111.71855469 -61.0234375 112.1328125 C-62.78209485 112.90439735 -64.49020864 113.78893398 -66.1875 114.6875 C-71.16708889 116.88034648 -76.6792054 116.2358973 -82 116 C-82 114.35 -82 112.7 -82 111 C-85.70524754 110.4596514 -87.85624053 110.30610511 -91.10546875 112.27734375 C-99.81787688 119.48592158 -101.25936021 126.37127888 -102.5078125 137.35546875 C-103.2996414 143.21877325 -104.25865715 149.07111232 -109 153 C-109.66 153 -110.32 153 -111 153 C-111.66 150.36 -112.32 147.72 -113 145 C-114.32 144.67 -115.64 144.34 -117 144 C-117.639375 145.0725 -118.27875 146.145 -118.9375 147.25 C-119.29714844 147.85328125 -119.65679687 148.4565625 -120.02734375 149.078125 C-124.37310022 157.66492092 -122.49990291 170.09409587 -120 179 C-131.84130869 173.62252495 -137.2873262 163.43176322 -142 152 C-142.38285156 151.08476562 -142.76570313 150.16953125 -143.16015625 149.2265625 C-146.68186959 138.84160317 -146.98052851 124.65848957 -142.9375 114.4375 C-140.548454 109.61189856 -137.61306141 105.14471718 -134.63671875 100.6640625 C-132.16928117 96.64785145 -130.61497941 92.40926937 -129 88 C-128.44709064 86.68343107 -127.88557136 85.37041885 -127.3125 84.0625 C-125.96799289 81.0423878 -125.96799289 81.0423878 -125 78 C-123.125 78.3125 -123.125 78.3125 -121 79 C-118.60259354 82.59610969 -118.76012308 84.30092327 -118.8125 88.5625 C-118.81894531 89.71878906 -118.82539063 90.87507813 -118.83203125 92.06640625 C-119 95 -119 95 -120 97 C-119.60061233 99.09821215 -119.60061233 99.09821215 -119 101 C-118.54173828 100.01773438 -118.54173828 100.01773438 -118.07421875 99.015625 C-112.20074595 87.30176939 -103.68732779 79.11261461 -93.51953125 71.09765625 C-85.42377318 64.35746697 -81.91930537 58.57321541 -80.875 48.25 C-80.74544922 47.06083984 -80.74544922 47.06083984 -80.61328125 45.84765625 C-80.40199946 43.89916859 -80.20007533 41.94967024 -80 40 C-74.60843432 40.78588923 -72.30395882 42.81308667 -69 47 C-64.33455767 54.93125195 -65.36844065 63.08006035 -67.5 71.6875 C-67.98701506 73.46194837 -68.48229646 75.23426114 -69 77 C-68.01 77 -67.02 77 -66 77 C-65.82984375 76.41992188 -65.6596875 75.83984375 -65.484375 75.2421875 C-62.54025695 65.75210484 -57.77345035 58.94550276 -49 54 C-42.34272477 50.79541099 -35.53698252 48.5236613 -28.4375 46.5625 C-18.88635764 43.87703573 -9.5978721 40.65125688 -4 32 C1.52842608 21.35825151 1.73530879 11.7133343 0 0 Z " fill="#EFEFEF" transform="translate(471,72)"/>
<path d="M0 0 C3 1 3 1 4 3 C4.20371103 7.07422069 4.31525761 10.07393077 3 13.9375 C1.22091727 19.38594087 1.12323231 24.06380468 3.5 29.3125 C6.21913893 32.23557435 8.57439802 33.58294858 12.1953125 35.140625 C14 36 14 36 16 38 C16.48321449 41.6724301 16.40763149 43.40758795 14.28515625 46.4921875 C13.55167969 47.27851563 12.81820312 48.06484375 12.0625 48.875 C8.18755401 53.44386363 6.6941611 55.9851683 7 62 C8.57430764 65.62090756 9.68882926 66.79255284 13 69 C15.45676916 69.06262425 15.45676916 69.06262425 18.0625 68.6875 C18.94035156 68.58824219 19.81820312 68.48898438 20.72265625 68.38671875 C23.02307196 68.10978136 23.02307196 68.10978136 25 67 C28.5 66.75 28.5 66.75 32 67 C34.12056646 70.18084969 34.27294896 71.03287796 34.25 74.6875 C34.25773437 75.89986328 34.25773437 75.89986328 34.265625 77.13671875 C33.98477333 80.1641345 33.23020541 82.93675585 32.45849609 85.86987305 C31.69207593 89.43058443 31.67107624 92.93284879 31.6875 96.5625 C31.66333008 97.63661133 31.66333008 97.63661133 31.63867188 98.73242188 C31.63400967 103.85618709 32.5799006 107.46377503 35 112 C37.06890419 113.04289755 37.06890419 113.04289755 39 113 C39.66 111.35 40.32 109.7 41 108 C43.3125 108.125 43.3125 108.125 46 109 C50.61127883 116.41098384 51.2089087 124.9840134 49.50390625 133.46875 C48.24509768 137.50831648 46.48742076 140.94175123 44.3125 144.5625 C41.72996168 149.00415477 41.38544411 151.90796546 42 157 C42.66 157.99 43.32 158.98 44 160 C54.16523427 158.54009933 62.083423 149.85758843 68 142 C69.93035873 138.76076388 71.54523176 135.47625343 73 132 C73.341521 131.27248535 73.68304199 130.5449707 74.03491211 129.79541016 C75.20191998 126.41513185 75.32281798 123.5229624 75.4140625 119.94921875 C75.43342865 119.29041214 75.4527948 118.63160553 75.4727478 117.95283508 C75.53215941 115.86451857 75.57877291 113.77614576 75.625 111.6875 C75.66321532 110.26495095 75.70226909 108.84242416 75.7421875 107.41992188 C75.83782796 103.94681926 75.92199973 100.47354868 76 97 C76.66 96.67 77.32 96.34 78 96 C78.02917228 99.22914752 78.04685663 102.45826083 78.0625 105.6875 C78.07087891 106.59951172 78.07925781 107.51152344 78.08789062 108.45117188 C78.09111328 109.33740234 78.09433594 110.22363281 78.09765625 111.13671875 C78.10289307 111.94842529 78.10812988 112.76013184 78.11352539 113.59643555 C77.9929791 116.14864673 77.559949 118.51026137 77 121 C77.66 121.33 78.32 121.66 79 122 C74.5260674 139.47890438 65.00724242 151.99321091 50.0703125 162.07421875 C46.32356627 163.74965055 42.83537673 163.13640792 39 162 C38.07196201 172.67243691 44.3656262 181.86518421 49.5 190.8125 C50.35271484 192.3274707 50.35271484 192.3274707 51.22265625 193.87304688 C54.39460082 199.47310829 54.39460082 199.47310829 58.18554688 204.65893555 C60 207 60 207 60.125 209.625 C59 212 59 212 56.5 213.8125 C52.16076765 215.28473955 48.53073623 215.87098809 44 215 C42.14153051 213.91485338 40.59797992 212.66500421 38.9453125 211.2890625 C36.52532555 209.68545669 34.32489181 209.20137199 31.5 208.5625 C24.89566875 206.95677661 21.20985265 203.87280845 17.125 198.5625 C15.73456364 195.39539496 15.33610075 192.42822764 15 189 C13.68 189 12.36 189 11 189 C10.05630076 199.72521675 11.40170797 207.87678877 15.51000977 217.81933594 C17.82762736 223.60069115 18.79371318 228.76137223 18 235 C14.94955865 241.34491801 9.44771558 246.22361201 2.9375 248.875 C-0.46324593 249.98221961 -3.41117478 250.50076631 -7 250 C-8.66015625 248.76171875 -8.66015625 248.76171875 -10 247 C-10.1953125 244.87109375 -10.1953125 244.87109375 -10.125 242.4375 C-10.61925115 235.37382733 -15.11012101 231.69302396 -20 227 C-21.31373182 225.68873297 -22.62638085 224.3763794 -23.9375 223.0625 C-24.48277344 222.53785156 -25.02804687 222.01320313 -25.58984375 221.47265625 C-27 220 -27 220 -29 217 C-28.67 216.01 -28.34 215.02 -28 214 C-27.62230469 214.52207031 -27.24460937 215.04414063 -26.85546875 215.58203125 C-22.4601629 221.45959481 -17.61306916 226.52637993 -12.35546875 231.6171875 C-8.07626116 235.9460708 -8.07626116 235.9460708 -7.8046875 239.69921875 C-7.82789063 240.68535156 -7.85109375 241.67148437 -7.875 242.6875 C-7.89304687 243.68136719 -7.91109375 244.67523438 -7.9296875 245.69921875 C-7.95289063 246.45847656 -7.97609375 247.21773437 -8 248 C3.91989645 245.68470604 3.91989645 245.68470604 13.375 238.4375 C15.95101364 232.98824038 16.21311936 227.90927464 14.40966797 222.09765625 C13.20356069 218.76889749 11.83937379 215.52342842 10.41015625 212.28515625 C4.94650716 199.55682139 8.23881432 186.50125301 13.12109375 174.16796875 C15.76375933 167.40158326 16.74656427 161.26093374 17 154 C17.66 154 18.32 154 19 154 C21.97445013 161.52360916 20.57619145 168.80669552 19.703125 176.67578125 C17.85438995 190.09524205 17.85438995 190.09524205 23 202 C27.20463902 204.80309268 31.87203031 205.82469003 36.6875 207.171875 C39 208 39 208 41.5625 210.1875 C44.74505417 212.55401464 46.94750976 212.40298943 50.81640625 212.3359375 C53.2069531 211.96816106 54.90615292 211.18698814 57 210 C55.57270419 206.15495027 53.78264366 202.74087502 51.69921875 199.2109375 C51.05146484 198.10363281 50.40371094 196.99632812 49.73632812 195.85546875 C48.38483863 193.55699964 47.02957802 191.26080816 45.67382812 188.96484375 C38.89141052 177.35892638 34.50092476 168.32408755 33.5625 154.8125 C31.69805905 134.8744242 23.89049264 120.20808759 14 103 C13.34233643 101.854104 13.34233643 101.854104 12.67138672 100.68505859 C10.19641802 96.40194708 7.64376613 92.18108688 5 88 C4.49339844 87.19304687 3.98679687 86.38609375 3.46484375 85.5546875 C-0.3404806 79.97919835 -5.32582323 76.5519807 -11 73 C-11.8146875 72.4740625 -12.629375 71.948125 -13.46875 71.40625 C-25.0888436 64.95064245 -40.50842912 65.62013284 -53 69 C-64.8376041 72.73245515 -70.72301649 77.425836 -77 88 C-79.53411939 93.3358941 -81.72903834 98.81433383 -83.94335938 104.2890625 C-84.62301758 105.90554688 -84.62301758 105.90554688 -85.31640625 107.5546875 C-85.71287354 108.52905762 -86.10934082 109.50342773 -86.51782227 110.50732422 C-88.28318832 113.47625643 -89.90328432 114.53855942 -93 116 C-93.66 116 -94.32 116 -95 116 C-95.96635567 118.89906702 -96.14978249 120.87296895 -96.2109375 123.89453125 C-96.25347656 125.32829102 -96.25347656 125.32829102 -96.296875 126.79101562 C-96.34865067 128.79343981 -96.39301175 130.79607046 -96.4296875 132.79882812 C-96.60830727 138.3397622 -97.0049304 142.2831658 -100 147 C-100.66 147 -101.32 147 -102 147 C-100.125 141.25 -100.125 141.25 -99 139 C-98.95153013 137.60891465 -98.96290135 136.21542354 -99.0078125 134.82421875 C-99.02457031 133.99599609 -99.04132813 133.16777344 -99.05859375 132.31445312 C-99.102574 130.57464607 -99.15455088 128.83502127 -99.21484375 127.09570312 C-99.29747067 122.24700504 -99.27935544 118.87905238 -96 115 C-94.01612292 113.96838392 -92.01723344 112.96476382 -90 112 C-89.505 110.515 -89.505 110.515 -89 109 C-93.09363848 105.85447942 -97.20773493 102.83847567 -101.5625 100.0625 C-111.72228286 93.22552283 -116.04821603 84.93564709 -121 74 C-121.28552734 73.37867188 -121.57105469 72.75734375 -121.86523438 72.1171875 C-126.22772958 62.35702873 -127.35381941 47.83985246 -123.5 37.6875 C-122.71593776 36.0997037 -121.87518317 34.53944962 -121 33 C-120.35193726 31.78825591 -119.70488501 30.5759711 -119.05859375 29.36328125 C-113.64105954 19.42737303 -113.64105954 19.42737303 -110 17 C-111.78475803 21.9173802 -114.40576065 26.27177008 -117.078125 30.74023438 C-123.32967623 41.41219217 -123.67950724 53.91746861 -121.34765625 65.96484375 C-117.69650947 79.89561409 -111.2818415 90.24394391 -100 99 C-99.34 99.33 -98.68 99.66 -98 100 C-98.495 98.824375 -98.99 97.64875 -99.5 96.4375 C-102.61555817 86.98647665 -102.15677322 76.89108744 -98.0703125 67.85546875 C-97 66 -97 66 -95 64 C-93 64.1875 -93 64.1875 -91 65 C-88.70986347 68.4352048 -88.82157027 69.985331 -89 74 C-83.4843395 69.67691474 -82.23481759 64.7604042 -81 58 C-80.82785225 56.10637476 -80.68127252 54.21022086 -80.5625 52.3125 C-79.93612895 44.00421986 -76.50688547 39.02297538 -70.5859375 33.34765625 C-67.2059731 30.47551901 -64.31387361 30.92011345 -60 31 C-58.875 34.75 -58.875 34.75 -60 37 C-52.41765968 36.85669116 -46.7385892 35.93120331 -40.15625 32.05859375 C-38 31 -38 31 -34 31 C-33.66798098 34.56920443 -33.70637403 36.50670837 -35.5625 39.625 C-38.50695033 42.49395161 -41.35762983 44.10876933 -45 46 C-36.86064016 46.49579857 -31.19881011 45.80574038 -24 42 C-23.01 41.67 -22.02 41.34 -21 41 C-19.8974827 38.83378132 -19.8974827 38.83378132 -19 36 C-18.54625 34.865625 -18.0925 33.73125 -17.625 32.5625 C-16.61914335 29.95417566 -15.87196243 27.45192082 -15.234375 24.72265625 C-13.04410057 15.553371 -9.65175776 10.54150763 -3 4 C-1.97348885 2.68696815 -0.96319146 1.36016175 0 0 Z M43 137 C39.59972161 140.50331713 38.45038771 143.15833214 38 148 C38.66 148 39.32 148 40 148 C40.83848804 146.54462432 41.67063934 145.08559627 42.5 143.625 C42.9640625 142.81289063 43.428125 142.00078125 43.90625 141.1640625 C45.15035859 139.10663126 45.15035859 139.10663126 45 137 C44.34 137 43.68 137 43 137 Z " fill="#191919" transform="translate(449,151)"/>
<path d="M0 0 C0.99 0 1.98 0 3 0 C2.38281888 3.71184992 1.32741078 6.83005721 -0.22265625 10.25390625 C-0.90110596 11.76839355 -0.90110596 11.76839355 -1.59326172 13.31347656 C-2.07811035 14.3856543 -2.56295898 15.45783203 -3.0625 16.5625 C-8.97353904 29.80799783 -14.42644976 43.1868382 -19.5625 56.75 C-25.66949809 72.67328024 -32.02987832 86.55845229 -44 99 C-44.97453125 100.03447266 -44.97453125 100.03447266 -45.96875 101.08984375 C-49.47110135 104.71420324 -53.13104591 107.97170669 -57.0625 111.125 C-73.76295824 124.66653985 -85.60076679 136.96704857 -92 158 C-92.31066406 158.98871094 -92.62132812 159.97742188 -92.94140625 160.99609375 C-93.56937267 163.0166217 -94.18828681 165.03998303 -94.79858398 167.06591797 C-96.20673129 171.70779381 -97.68237689 176.3278738 -99.15625 180.94921875 C-99.46114349 181.90640305 -99.76603699 182.86358734 -100.08016968 183.84977722 C-102.30990993 190.84596444 -104.5485703 197.83928139 -106.7890625 204.83203125 C-107.74685421 207.82345131 -108.70452198 210.81491101 -109.66210938 213.80639648 C-110.30697025 215.81962466 -110.95248398 217.83264382 -111.59863281 219.84545898 C-115.55959716 232.18714715 -119.4003374 244.54820705 -123 257 C-123.58972066 258.99911888 -124.1807224 260.99786064 -124.7734375 262.99609375 C-126.22304701 267.90637517 -127.64818348 272.8234416 -129.06201172 277.74414062 C-129.70199774 279.96560172 -130.34707558 282.18560066 -130.99658203 284.40429688 C-131.99453737 287.82724015 -132.96836856 291.25629784 -133.9375 294.6875 C-134.24413574 295.72511475 -134.55077148 296.76272949 -134.86669922 297.83178711 C-137.5078105 307.34480538 -137.74880228 316.29264345 -136 326 C-135.68186594 329.49335669 -135.39047044 332.78094088 -137 336 C-140.2767977 337.63839885 -143.47232577 337.61900699 -147 337 C-152.5 334 -152.5 334 -154 331 C-154.70381756 323.68582956 -153.35886333 317.23556827 -151.2890625 310.26171875 C-150.98384674 309.20434006 -150.67863098 308.14696136 -150.36416626 307.05754089 C-145.74147607 291.35043785 -140.44259693 275.84792128 -135.22174072 260.33227539 C-134.08621043 256.95310488 -132.95637921 253.57204163 -131.82675743 250.19089222 C-130.45691283 246.09140309 -129.08416368 241.99288866 -127.7109375 237.89453125 C-127.45804333 237.13924448 -127.20514915 236.38395771 -126.94459152 235.60578346 C-124.05732681 226.99079815 -121.10588503 218.40579057 -118.01313782 209.86222839 C-116.79952398 206.43363267 -115.77977044 203.00586185 -114.8125 199.5 C-111.36107268 187.38517079 -107.23736579 175.4755272 -103.19726562 163.54736328 C-102.14513742 160.43002583 -101.10876893 157.30807801 -100.078125 154.18359375 C-92.87933967 132.61964646 -84.20546053 117.50228564 -65.82421875 103.59765625 C-60.24917696 99.37929455 -54.77715584 95.09887453 -49.5625 90.4375 C-48.63566406 89.61121094 -47.70882812 88.78492188 -46.75390625 87.93359375 C-40.11574948 81.28355129 -36.41467705 72.97604352 -32.8125 64.4375 C-31.84889419 62.2090997 -30.88401779 59.98124846 -29.91796875 57.75390625 C-29.43247559 56.62871582 -28.94698242 55.50352539 -28.44677734 54.34423828 C-9.66430019 10.92838069 -9.66430019 10.92838069 0 0 Z M-6 14 C-6.99 15.485 -6.99 15.485 -8 17 C-7.67 17.99 -7.34 18.98 -7 20 C-6.34 18.02 -5.68 16.04 -5 14 C-5.33 14 -5.66 14 -6 14 Z M-9 20 C-8 22 -8 22 -8 22 Z M-11 22 C-10.34 22.66 -9.68 23.32 -9 24 C-9 23.34 -9 22.68 -9 22 C-9.66 22 -10.32 22 -11 22 Z M-18 42 C-17 44 -17 44 -17 44 Z M-31 69 C-30 71 -30 71 -30 71 Z M-45 92 C-45 92.99 -45 93.98 -45 95 C-44.34 94.34 -43.68 93.68 -43 93 C-43.66 92.67 -44.32 92.34 -45 92 Z M-47 95 C-46 97 -46 97 -46 97 Z M-52 97 C-56.455 100.465 -56.455 100.465 -61 104 C-60.67 104.99 -60.34 105.98 -60 107 C-58.68 106.67 -57.36 106.34 -56 106 C-56 105.34 -56 104.68 -56 104 C-55.38125 103.731875 -54.7625 103.46375 -54.125 103.1875 C-51.7004767 102.04443152 -51.7004767 102.04443152 -50 99 C-50.66 98.34 -51.32 97.68 -52 97 Z M-76 118 C-77.36363208 119.97946592 -78.69418644 121.9819245 -80 124 C-81.75 125.875 -81.75 125.875 -83 127 C-82.67 127.66 -82.34 128.32 -82 129 C-80.84501103 127.92643323 -79.70132133 126.84070212 -78.5625 125.75 C-77.92441406 125.14671875 -77.28632813 124.5434375 -76.62890625 123.921875 C-74.91483694 121.89951984 -74.40641122 120.58729395 -74 118 C-74.66 118 -75.32 118 -76 118 Z M-93 146 C-92 148 -92 148 -92 148 Z M-97 157 C-96 159 -96 159 -96 159 Z M-100 170 C-100.33 171.32 -100.66 172.64 -101 174 C-100.34 172.68 -99.68 171.36 -99 170 C-99.33 170 -99.66 170 -100 170 Z M-117 217 C-118.6230253 221.25078054 -120.20632123 225.51002832 -121.6875 229.8125 C-122.06455078 230.90498047 -122.06455078 230.90498047 -122.44921875 232.01953125 C-123.13396894 234.13911302 -123.13396894 234.13911302 -123 237 C-122.01 237.33 -121.02 237.66 -120 238 C-119.16193384 235.06377536 -118.32937556 232.12617933 -117.5 229.1875 C-117.14228516 227.93743164 -117.14228516 227.93743164 -116.77734375 226.66210938 C-116.55175781 225.85966797 -116.32617188 225.05722656 -116.09375 224.23046875 C-115.88427734 223.49207764 -115.67480469 222.75368652 -115.45898438 221.99291992 C-114.88778387 219.85360363 -114.88778387 219.85360363 -115 217 C-115.66 217 -116.32 217 -117 217 Z M-124 238 C-124.66 239.98 -125.32 241.96 -126 244 C-124.68 244.33 -123.36 244.66 -122 245 C-121.67 242.69 -121.34 240.38 -121 238 C-121.99 238 -122.98 238 -124 238 Z M-127 246 C-126 248 -126 248 -126 248 Z M-128 249 C-128.33 250.98 -128.66 252.96 -129 255 C-128.34 254.34 -127.68 253.68 -127 253 C-127.3185177 250.89179203 -127.3185177 250.89179203 -128 249 Z M-125 249 C-124 251 -124 251 -124 251 Z M-126 252 C-126.33 253.32 -126.66 254.64 -127 256 C-126.34 254.68 -125.68 253.36 -125 252 C-125.33 252 -125.66 252 -126 252 Z M-130 255 C-129 257 -129 257 -129 257 Z M-128 256 C-128.33 256.99 -128.66 257.98 -129 259 C-128.01 259.495 -128.01 259.495 -127 260 C-127.33 258.68 -127.66 257.36 -128 256 Z M-131 257 C-130 260 -130 260 -130 260 Z M-132 261 C-131 263 -131 263 -131 263 Z M-129 261 C-128 264 -128 264 -128 264 Z M-131 265 C-131.99 265.33 -132.98 265.66 -134 266 C-135.65049717 270.43028188 -136.22973141 274.29050618 -136 279 C-135.01 279 -134.02 279 -133 279 C-131.68 274.71 -130.36 270.42 -129 266 C-129.66 265.67 -130.32 265.34 -131 265 Z M-137 279 C-136 281 -136 281 -136 281 Z M-139 285 C-138 287 -138 287 -138 287 Z M-138 289 C-137 292 -137 292 -137 292 Z M-141 291 C-141.41713515 292.43146378 -141.8080497 293.87058886 -142.1875 295.3125 C-142.40792969 296.11300781 -142.62835938 296.91351562 -142.85546875 297.73828125 C-143.26194505 300.08969364 -143.26194505 300.08969364 -141.55078125 301.79296875 C-141.03902344 302.19128906 -140.52726563 302.58960938 -140 303 C-138.80712589 299.12315913 -138 296.08378077 -138 292 C-138.99 291.67 -139.98 291.34 -141 291 Z M-144 301 C-144.99 304.3 -145.98 307.6 -147 311 C-145.02 310.67 -143.04 310.34 -141 310 C-141 307.69 -141 305.38 -141 303 C-141.33 303.66 -141.66 304.32 -142 305 C-142 303.68 -142 302.36 -142 301 C-142.66 301 -143.32 301 -144 301 Z M-148 311 C-147 313 -147 313 -147 313 Z M-144 312 C-144.33 312.99 -144.66 313.98 -145 315 C-147.0625 315.6875 -147.0625 315.6875 -149 316 C-149.042721 317.66611905 -149.04063832 319.33382885 -149 321 C-148.67 321.33 -148.34 321.66 -148 322 C-147.9549714 323.66605828 -147.96125079 325.33378384 -148 327 C-148 328.32 -148 329.64 -148 331 C-145.82137181 333.00719496 -145.82137181 333.00719496 -143 334 C-140.69712207 333.30859649 -140.69712207 333.30859649 -139 332 C-139.83333333 329.83333333 -139.83333333 329.83333333 -142 329 C-141.79375 328.05125 -141.5875 327.1025 -141.375 326.125 C-141.189375 324.578125 -141.189375 324.578125 -141 323 C-141.66 322.34 -142.32 321.68 -143 321 C-143.33 320.67 -143.66 320.34 -144 320 C-143.67 319.236875 -143.34 318.47375 -143 317.6875 C-141.82563314 315.00930865 -141.82563314 315.00930865 -142 312 C-142.66 312 -143.32 312 -144 312 Z M-150 326 C-149 328 -149 328 -149 328 Z " fill="#1D1D1C" transform="translate(355,301)"/>
<path d="M0 0 C0.66 0 1.32 0 2 0 C4.97445013 7.52360916 3.57619145 14.80669552 2.703125 22.67578125 C0.85438995 36.09524205 0.85438995 36.09524205 6 48 C10.20463902 50.80309268 14.87203031 51.82469003 19.6875 53.171875 C22 54 22 54 24.5625 56.1875 C27.74505417 58.55401464 29.94750976 58.40298943 33.81640625 58.3359375 C36.2069531 57.96816106 37.90615292 57.18698814 40 56 C38.57270419 52.15495027 36.78264366 48.74087502 34.69921875 45.2109375 C34.05146484 44.10363281 33.40371094 42.99632812 32.73632812 41.85546875 C31.38483863 39.55699964 30.02957802 37.26080816 28.67382812 34.96484375 C17.65471715 16.1091939 17.65471715 16.1091939 18.37768555 11.69287109 C18.58304932 11.13422363 18.78841309 10.57557617 19 10 C21.02579676 13.03869514 22.43651149 16.0541421 23.703125 19.45703125 C26.11127787 25.54941433 29.24422186 31.13888208 32.5 36.8125 C33.06847656 37.82248047 33.63695312 38.83246094 34.22265625 39.87304688 C37.39460082 45.47310829 37.39460082 45.47310829 41.18554688 50.65893555 C43 53 43 53 43.125 55.625 C42 58 42 58 39.5 59.8125 C35.16076765 61.28473955 31.53073623 61.87098809 27 61 C25.14153051 59.91485338 23.59797992 58.66500421 21.9453125 57.2890625 C19.52532555 55.68545669 17.32489181 55.20137199 14.5 54.5625 C7.89566875 52.95677661 4.20985265 49.87280845 0.125 44.5625 C-1.26543636 41.39539496 -1.66389925 38.42822764 -2 35 C-3.32 35 -4.64 35 -6 35 C-6.94369924 45.72521675 -5.59829203 53.87678877 -1.48999023 63.81933594 C0.82762736 69.60069115 1.79371318 74.76137223 1 81 C-2.05044135 87.34491801 -7.55228442 92.22361201 -14.0625 94.875 C-17.46324593 95.98221961 -20.41117478 96.50076631 -24 96 C-25.66015625 94.76171875 -25.66015625 94.76171875 -27 93 C-27.1953125 90.87109375 -27.1953125 90.87109375 -27.125 88.4375 C-27.61925115 81.37382733 -32.11012101 77.69302396 -37 73 C-38.31373182 71.68873297 -39.62638085 70.3763794 -40.9375 69.0625 C-41.48277344 68.53785156 -42.02804687 68.01320313 -42.58984375 67.47265625 C-44 66 -44 66 -46 63 C-45.67 62.01 -45.34 61.02 -45 60 C-44.62230469 60.52207031 -44.24460937 61.04414063 -43.85546875 61.58203125 C-39.4601629 67.45959481 -34.61306916 72.52637993 -29.35546875 77.6171875 C-25.07626116 81.9460708 -25.07626116 81.9460708 -24.8046875 85.69921875 C-24.82789063 86.68535156 -24.85109375 87.67148437 -24.875 88.6875 C-24.89304687 89.68136719 -24.91109375 90.67523438 -24.9296875 91.69921875 C-24.95289063 92.45847656 -24.97609375 93.21773438 -25 94 C-13.08010355 91.68470604 -13.08010355 91.68470604 -3.625 84.4375 C-1.04898636 78.98824038 -0.78688064 73.90927464 -2.59033203 68.09765625 C-3.79643931 64.76889749 -5.16062621 61.52342842 -6.58984375 58.28515625 C-12.05349284 45.55682139 -8.76118568 32.50125301 -3.87890625 20.16796875 C-1.23624067 13.40158326 -0.25343573 7.26093374 0 0 Z " fill="#242424" transform="translate(466,305)"/>
<path d="M0 0 C5.39156568 0.78588923 7.69604118 2.81308667 11 7 C15.66544233 14.93125195 14.63155935 23.08006035 12.5 31.6875 C12.01298494 33.46194837 11.51770354 35.23426114 11 37 C11.99 37 12.98 37 14 37 C14.17015625 36.41992188 14.3403125 35.83984375 14.515625 35.2421875 C17.151761 26.74485549 21.17260733 20.25568343 28.6875 15.1875 C31 14 31 14 33 14 C33 14.66 33 15.32 33 16 C30.0173094 17.52448631 27.181798 18.93940067 24 20 C22.97348627 21.71519747 22.97348627 21.71519747 22 24 C21.360625 24.99 20.72125 25.98 20.0625 27 C17.61805474 31.18009226 16.72455041 35.62973106 15.7109375 40.328125 C15 43 15 43 13 46 C9.125 45.125 9.125 45.125 8 44 C7.67690347 38.9112297 7.86086628 34.95735176 9.5 30.125 C11.73772684 23.22980342 12.3860517 16.29682669 9.3125 9.5625 C7.54182622 6.18874708 5.01718393 4.27664791 2 2 C1.96132813 3.37671875 1.96132813 3.37671875 1.921875 4.78125 C1.44748372 15.04535224 -0.25125939 21.2723465 -7 29 C-9.19191961 30.89853798 -11.49472126 32.63381836 -13.8125 34.375 C-24.6605864 42.75551988 -35.10010613 52.27801328 -37.4140625 66.5546875 C-37.48367188 67.32039063 -37.55328125 68.08609375 -37.625 68.875 C-37.69976562 69.65617187 -37.77453125 70.43734375 -37.8515625 71.2421875 C-37.90054687 71.82226562 -37.94953125 72.40234375 -38 73 C-42.77661597 69.17870722 -42.77661597 69.17870722 -43.3671875 66.0625 C-43.37820014 63.15516295 -43.11284034 60.51034609 -42.484375 57.66796875 C-41.91087824 54.50911158 -41.8676813 51.52175019 -41.875 48.3125 C-41.87113281 46.60513672 -41.87113281 46.60513672 -41.8671875 44.86328125 C-41.80362215 42.05501397 -41.80362215 42.05501397 -43 40 C-43.99 42.475 -43.99 42.475 -45 45 C-45.66 44.34 -46.32 43.68 -47 43 C-46.34 41.35 -45.68 39.7 -45 38 C-43.125 38.3125 -43.125 38.3125 -41 39 C-38.60259354 42.59610969 -38.76012308 44.30092327 -38.8125 48.5625 C-38.82216797 50.29693359 -38.82216797 50.29693359 -38.83203125 52.06640625 C-39 55 -39 55 -40 57 C-39.60061233 59.09821215 -39.60061233 59.09821215 -39 61 C-38.69449219 60.34515625 -38.38898438 59.6903125 -38.07421875 59.015625 C-32.20074595 47.30176939 -23.68732779 39.11261461 -13.51953125 31.09765625 C-5.42377318 24.35746697 -1.91930537 18.57321541 -0.875 8.25 C-0.78863281 7.45722656 -0.70226562 6.66445312 -0.61328125 5.84765625 C-0.40199946 3.89916859 -0.20007533 1.94967024 0 0 Z " fill="#242424" transform="translate(391,112)"/>
<path d="M0 0 C7.83262778 2.74209846 12.49243669 8.52042103 16.375 15.6875 C18.75822923 20.82355016 19.73004206 25.44318827 20.3671875 31.03515625 C21.22923252 37.37879342 23.20683154 43.54995977 24.96875 49.69067383 C26.62097823 55.67131062 27.29369872 60.79401829 27 67 C19.97251584 56.45877376 16.62845291 43.89339355 14.875 31.5 C13.17341703 19.61607713 10.61510958 10.4757793 1.3203125 2.20703125 C0.88460938 1.80871094 0.44890625 1.41039062 0 1 C0 0.67 0 0.34 0 0 Z " fill="#191919" transform="translate(422,232)"/>
<path d="M0 0 C9.6586878 1.35013915 19.00063995 4.95034881 27.79296875 9.0859375 C32.04945336 10.84880015 36.53482725 11.89831252 41 13 C41.28617187 12.22269531 41.57234375 11.44539063 41.8671875 10.64453125 C43.12534781 7.7073777 44.64424059 6.12018347 47 4 C45.87548273 6.9719385 44.77706209 9.33440687 43 12 C42.83333333 14.5 42.83333333 14.5 43 17 C43 17.99 43 18.98 43 20 C42.31550781 19.70480469 41.63101563 19.40960938 40.92578125 19.10546875 C37.71367592 17.89181613 34.52661819 17.11200717 31.1875 16.3125 C25.38140435 14.83904098 19.92394943 12.90244548 14.4375 10.5 C13.78354248 10.21552002 13.12958496 9.93104004 12.45581055 9.63793945 C8.35266172 7.78515999 4.59061559 5.72130865 1 3 C0.67 2.01 0.34 1.02 0 0 Z " fill="#242424" transform="translate(362,268)"/>
<path d="M0 0 C10.50886405 3.68732072 17.36741994 13.18891239 22.4375 22.6953125 C26.18174187 30.51810355 29.71498038 39.18190863 29 48 C26.70984835 45.9133995 25.41962603 44.11814167 24.23828125 41.26171875 C23.92842285 40.53090088 23.61856445 39.80008301 23.29931641 39.04711914 C22.97366699 38.26844482 22.64801758 37.48977051 22.3125 36.6875 C17.00246448 24.45234424 11.32665803 13.70003137 1.90625 4.109375 C0 2 0 2 0 0 Z " fill="#202020" transform="translate(431,227)"/>
<path d="M0 0 C0.33 0 0.66 0 1 0 C0.99097656 0.70640625 0.98195313 1.4128125 0.97265625 2.140625 C1.22102032 10.73618149 3.36468285 17.72870053 6.56079102 25.66699219 C8.81310111 31.49046443 9.79152509 36.7476585 9 43 C5.94955865 49.34491801 0.44771558 54.22361201 -6.0625 56.875 C-9.46324593 57.98221961 -12.41117478 58.50076631 -16 58 C-17.66015625 56.76171875 -17.66015625 56.76171875 -19 55 C-19.1953125 52.87109375 -19.1953125 52.87109375 -19.125 50.4375 C-19.61925115 43.37382733 -24.11012101 39.69302396 -29 35 C-30.31373182 33.68873297 -31.62638085 32.3763794 -32.9375 31.0625 C-33.48277344 30.53785156 -34.02804687 30.01320313 -34.58984375 29.47265625 C-36 28 -36 28 -38 25 C-37.505 23.515 -37.505 23.515 -37 22 C-36.62230469 22.52207031 -36.24460937 23.04414063 -35.85546875 23.58203125 C-31.4601629 29.45959481 -26.61306916 34.52637993 -21.35546875 39.6171875 C-17.07626116 43.9460708 -17.07626116 43.9460708 -16.8046875 47.69921875 C-16.82789063 48.68535156 -16.85109375 49.67148437 -16.875 50.6875 C-16.89304687 51.68136719 -16.91109375 52.67523438 -16.9296875 53.69921875 C-16.95289063 54.45847656 -16.97609375 55.21773438 -17 56 C-5.08010355 53.68470604 -5.08010355 53.68470604 4.375 46.4375 C6.95101364 40.98824038 7.21311936 35.90927464 5.40966797 30.09765625 C4.20356069 26.76889749 2.83937379 23.52342842 1.41015625 20.28515625 C-0.54833591 15.72257478 -1.13837335 12.33651166 -1.125 7.375 C-1.12757813 6.41335938 -1.13015625 5.45171875 -1.1328125 4.4609375 C-1 2 -1 2 0 0 Z " fill="#1B1A1A" transform="translate(458,343)"/>
<path d="M0 0 C6.19946552 -0.50022142 10.24249872 1.06836106 15.75 3.8125 C16.50410156 4.16892578 17.25820312 4.52535156 18.03515625 4.89257812 C24.47370781 8.00892857 24.47370781 8.00892857 27 11 C27 11.66 27 12.32 27 13 C19.95633649 14.21909561 14.67571651 12.3674979 8.4375 9.3125 C7.72271484 8.97347656 7.00792969 8.63445313 6.27148438 8.28515625 C1.23812959 5.68353796 1.23812959 5.68353796 0.03515625 2.23046875 C0.02355469 1.49441406 0.01195312 0.75835938 0 0 Z " fill="#252626" transform="translate(215,644)"/>
<path d="M0 0 C2.61205543 2.37106222 4.21874263 4.90490933 6 7.9375 C9.59806497 13.7190061 13.86896655 18.47181998 18.546875 23.37109375 C21 26 21 26 22.66015625 28.26953125 C24.43401723 30.56055286 26.28938459 31.12088149 29 32 C29 32.33 29 32.66 29 33 C20.66863613 34.20695815 20.66863613 34.20695815 17.0234375 31.5703125 C15.17625056 29.47008626 13.58235925 27.30636324 12 25 C11.08734375 23.77410156 11.08734375 23.77410156 10.15625 22.5234375 C4.93678298 15.37984492 0.74437934 8.93255206 0 0 Z " fill="#201F20" transform="translate(390,239)"/>
<path d="M0 0 C0.33 0.66 0.66 1.32 1 2 C-0.53288777 5.30800966 -2.20641329 8.49744602 -3.93164062 11.70703125 C-7.59230998 18.71290834 -9.29200759 24.98363572 -9.125 33 C-9.10695313 34.134375 -9.08890625 35.26875 -9.0703125 36.4375 C-9.04710937 37.283125 -9.02390625 38.12875 -9 39 C-12.42031359 36.2812892 -14.34636837 34.10928979 -15.0625 29.8125 C-15.62505191 17.99890996 -6.80105623 8.79446927 0 0 Z " fill="#373637" transform="translate(446,326)"/>
<path d="M0 0 C4.47094629 0 6.80156405 1.30782359 9.875 4.375 C13.13025287 8.48229893 14.0797653 11.70310257 13.7734375 16.91796875 C12.46523519 22.13095674 9.71769224 26.43559346 6.84765625 30.93359375 C4.12261394 35.45612697 3.86898271 38.94399726 3.75390625 44.19140625 C3.72103516 45.38314453 3.68816406 46.57488281 3.65429688 47.80273438 C3.59300589 50.31305658 3.53572622 52.82347988 3.48242188 55.33398438 C3.44826172 56.52443359 3.41410156 57.71488281 3.37890625 58.94140625 C3.3538501 60.03138916 3.32879395 61.12137207 3.30297852 62.24438477 C3 65 3 65 1 68 C0.94124019 63.87506128 0.90615062 59.75023232 0.875 55.625 C0.85824219 54.46871094 0.84148437 53.31242187 0.82421875 52.12109375 C0.7707706 42.66077077 1.20592246 34.34413538 6.125 26.0625 C9.19358357 20.24044414 10.07201471 15.50788729 9 9 C7.53362801 5.08967468 6.46119899 4.26225041 2.8125 2.1875 C1.884375 1.795625 0.95625 1.40375 0 1 C0 0.67 0 0.34 0 0 Z " fill="#4C4C4B" transform="translate(419,272)"/>
<path d="M0 0 C0 0.66 0 1.32 0 2 C-2.9826906 3.52448631 -5.818202 4.93940067 -9 6 C-10.02651373 7.71519747 -10.02651373 7.71519747 -11 10 C-11.639375 10.99 -12.27875 11.98 -12.9375 13 C-15.38194526 17.18009226 -16.27544959 21.62973106 -17.2890625 26.328125 C-18 29 -18 29 -20 32 C-23.875 31.125 -23.875 31.125 -25 30 C-25.44134838 23.04876301 -24.29641092 17.54750493 -22 11 C-21.67 11 -21.34 11 -21 11 C-20.85714286 19.57142857 -20.85714286 19.57142857 -22 23 C-21.01 23 -20.02 23 -19 23 C-18.82984375 22.41992188 -18.6596875 21.83984375 -18.484375 21.2421875 C-15.848239 12.74485549 -11.82739267 6.25568343 -4.3125 1.1875 C-2 0 -2 0 0 0 Z " fill="#2D2D2D" transform="translate(424,126)"/>
<path d="M0 0 C2.24651788 4.24070515 3.39451972 8.56962196 4.625 13.1875 C4.85445313 14.00025391 5.08390625 14.81300781 5.3203125 15.65039062 C6.81975347 21.2599064 7.22167652 26.19557525 7 32 C4.33422582 28.00133872 2.56683381 23.78679214 0.6875 19.375 C0.28982422 18.51003906 -0.10785156 17.64507812 -0.51757812 16.75390625 C-2.5435885 11.93626304 -3.41480148 8.913483 -1.73046875 3.8515625 C-1.1851488 2.55401391 -0.6192671 1.26392819 0 0 Z " fill="#242425" transform="translate(442,267)"/>
<path d="M0 0 C1.875 0.3125 1.875 0.3125 4 1 C6.39740646 4.59610969 6.23987692 6.30092327 6.1875 10.5625 C6.17783203 12.29693359 6.17783203 12.29693359 6.16796875 14.06640625 C6 17 6 17 5 19 C5.39938767 21.09821215 5.39938767 21.09821215 6 23 C6.66 22.34 7.32 21.68 8 21 C7.67 25.62 7.34 30.24 7 35 C2.22338403 31.17870722 2.22338403 31.17870722 1.6328125 28.0625 C1.62179986 25.15516295 1.88715966 22.51034609 2.515625 19.66796875 C3.08912176 16.50911158 3.1323187 13.52175019 3.125 10.3125 C3.12886719 8.60513672 3.12886719 8.60513672 3.1328125 6.86328125 C3.19637785 4.05501397 3.19637785 4.05501397 2 2 C1.34 3.65 0.68 5.3 0 7 C-0.66 6.34 -1.32 5.68 -2 5 C-1.34 3.35 -0.68 1.7 0 0 Z " fill="#171717" transform="translate(346,150)"/>
<path d="M0 0 C0.99 0 1.98 0 3 0 C2.33673121 5.1692853 0.08075343 9.62251365 -2.0625 14.3125 C-2.43955078 15.14845703 -2.81660156 15.98441406 -3.20507812 16.84570312 C-4.13211807 18.89927262 -5.06386878 20.95056287 -6 23 C-7.65 22.01 -9.3 21.02 -11 20 C-9.4095488 15.6366679 -7.25824078 11.75213615 -4.9375 7.75 C-4.57333984 7.11320312 -4.20917969 6.47640625 -3.83398438 5.8203125 C-1.14074248 1.14074248 -1.14074248 1.14074248 0 0 Z M-6 14 C-6.99 15.485 -6.99 15.485 -8 17 C-7.67 17.99 -7.34 18.98 -7 20 C-6.34 18.02 -5.68 16.04 -5 14 C-5.33 14 -5.66 14 -6 14 Z " fill="#242525" transform="translate(355,301)"/>
<path d="M0 0 C2.56870444 2.46595627 4.93021817 5.05331998 7.25 7.75 C10.43405792 11.429203 13.80673832 14.85407072 17.30078125 18.23828125 C19.64372932 20.66740672 20.94791298 22.28015735 21.1953125 25.69921875 C21.17210937 26.68535156 21.14890625 27.67148437 21.125 28.6875 C21.10695313 29.68136719 21.08890625 30.67523438 21.0703125 31.69921875 C21.04710937 32.45847656 21.02390625 33.21773438 21 34 C23.10457775 33.52264214 25.20864922 33.04305171 27.3125 32.5625 C28.48425781 32.29566406 29.65601563 32.02882813 30.86328125 31.75390625 C34.00236971 31.04686031 34.00236971 31.04686031 37 30 C36 33 36 33 34.36328125 33.94921875 C30.1474222 35.46692801 26.54229827 36.63380906 22 36 C20.33984375 34.76171875 20.33984375 34.76171875 19 33 C18.8046875 30.87109375 18.8046875 30.87109375 18.875 28.4375 C18.38074885 21.37382733 13.88987899 17.69302396 9 13 C7.68626818 11.68873297 6.37361915 10.3763794 5.0625 9.0625 C4.51722656 8.53785156 3.97195313 8.01320313 3.41015625 7.47265625 C0.9952345 4.95070196 0 3.53344036 0 0 Z " fill="#202021" transform="translate(420,365)"/>
<path d="M0 0 C1.27132649 3.81397948 1.14512624 7.40342217 1.125 11.375 C1.12886719 12.13039063 1.13273438 12.88578125 1.13671875 13.6640625 C1.12987994 17.57585931 0.95875152 21.18021219 0 25 C0.66 25.33 1.32 25.66 2 26 C-0.32583313 35.08664001 -3.54865497 42.35892929 -9 50 C-9.99 49.67 -10.98 49.34 -12 49 C-11.61328125 48.53851563 -11.2265625 48.07703125 -10.828125 47.6015625 C-10.04695312 46.62316406 -10.04695312 46.62316406 -9.25 45.625 C-8.73953125 44.99851562 -8.2290625 44.37203125 -7.703125 43.7265625 C-1.99066365 34.58138355 -1.38223655 26.06154615 -1.3125 15.4375 C-1.27427122 12.72768007 -1.22529104 10.01825117 -1.17578125 7.30859375 C-1.15898315 5.52666626 -1.15898315 5.52666626 -1.1418457 3.70874023 C-1 1 -1 1 0 0 Z " fill="#494A49" transform="translate(526,247)"/>
<path d="M0 0 C3.4375 1.5 3.4375 1.5 6 3 C6 4.32 6 5.64 6 7 C2.25 8.125 2.25 8.125 0 7 C-1.53668865 6.77532169 -3.07968054 6.59203195 -4.625 6.4375 C-5.44226563 6.35371094 -6.25953125 6.26992188 -7.1015625 6.18359375 C-7.72804688 6.12300781 -8.35453125 6.06242187 -9 6 C-9.33 4.68 -9.66 3.36 -10 2 C-6.25816125 -0.49455917 -4.43756964 -0.37606522 0 0 Z M-6 3 C-6 3.33 -6 3.66 -6 4 C-4.02 4 -2.04 4 0 4 C0 3.67 0 3.34 0 3 C-1.98 3 -3.96 3 -6 3 Z " fill="#2F3030" transform="translate(326,401)"/>
<path d="M0 0 C1 2 1 2 0.22265625 4.8203125 C-0.16019531 5.91085937 -0.54304687 7.00140625 -0.9375 8.125 C-1.31777344 9.22070312 -1.69804687 10.31640625 -2.08984375 11.4453125 C-2.54037109 12.70988281 -2.54037109 12.70988281 -3 14 C-2.34 14.33 -1.68 14.66 -1 15 C-1.99 15 -2.98 15 -4 15 C-4.99 17.475 -4.99 17.475 -6 20 C-6.66 19.67 -7.32 19.34 -8 19 C-7.05075529 14.2761116 -5.96861241 9.6105686 -4.5625 5 C-4.33691406 4.2575 -4.11132812 3.515 -3.87890625 2.75 C-3 1 -3 1 0 0 Z " fill="#2A2B2A" transform="translate(235,524)"/>
<path d="M0 0 C0.66 0.66 1.32 1.32 2 2 C1.80945677 4.76287686 1.49269458 7.29017983 1 10 C0.8865625 10.73734375 0.773125 11.4746875 0.65625 12.234375 C0.25 14.375 0.25 14.375 -1 18 C-3.578125 19.2265625 -3.578125 19.2265625 -6 20 C-4.22089072 13.24947898 -2.29561809 6.59379663 0 0 Z " fill="#2D2D2D" transform="translate(219,564)"/>
<path d="M0 0 C6.66555548 2.26443087 10.98697842 7.16918841 15 12.8125 C16 15 16 15 16 18 C14.1796875 17.7890625 14.1796875 17.7890625 12 17 C10.5078125 14.9609375 10.5078125 14.9609375 9.125 12.375 C6.49886553 7.71227145 3.60320066 3.94636262 0 0 Z " fill="#1F1E1E" transform="translate(422,232)"/>
<path d="M0 0 C0.33 0 0.66 0 1 0 C1.09796875 0.71285156 1.1959375 1.42570312 1.296875 2.16015625 C2.2533125 8.28630337 3.250608 13.00081067 7 18 C10.7706992 20.37717993 14.75259555 21.68532719 19 23 C18.67 23.66 18.34 24.32 18 25 C10.85992145 23.04837853 5.82772035 20.88393741 1.34765625 14.73046875 C-0.25918693 11.47486474 -0.30643678 9.29524893 -0.1875 5.6875 C-0.16042969 4.61886719 -0.13335937 3.55023438 -0.10546875 2.44921875 C-0.07066406 1.64097656 -0.03585937 0.83273437 0 0 Z " fill="#222222" transform="translate(465,335)"/>
<path d="M0 0 C0.33 0.66 0.66 1.32 1 2 C0.02131869 4.43931143 -1.01300766 6.72052024 -2.1875 9.0625 C-2.49236328 9.71283203 -2.79722656 10.36316406 -3.11132812 11.03320312 C-5.46610341 15.77731015 -5.46610341 15.77731015 -8.23828125 16.93359375 C-8.81964844 16.95550781 -9.40101563 16.97742188 -10 17 C-9.42000976 12.73970809 -6.87612107 9.64838465 -4.4375 6.25 C-4.01275391 5.64800781 -3.58800781 5.04601562 -3.15039062 4.42578125 C-2.10564478 2.94670286 -1.05353984 1.47282741 0 0 Z " fill="#282828" transform="translate(446,326)"/>
<path d="M0 0 C3.65564909 0.68761019 6.51867272 2.25449545 9.75 4.0625 C10.73484375 4.61035156 11.7196875 5.15820312 12.734375 5.72265625 C13.48203125 6.14417969 14.2296875 6.56570313 15 7 C10.77988808 8.28639376 8.14562211 7.55460829 4 6 C1.5625 4 1.5625 4 0 2 C0 1.34 0 0.68 0 0 Z " fill="#333232" transform="translate(358,285)"/>
<path d="M0 0 C0.33 0 0.66 0 1 0 C1 2.64 1 5.28 1 8 C3.10457775 7.52264214 5.20864922 7.04305171 7.3125 6.5625 C8.48425781 6.29566406 9.65601563 6.02882813 10.86328125 5.75390625 C14.00236971 5.04686031 14.00236971 5.04686031 17 4 C16 7 16 7 14.36328125 7.94921875 C10.1474222 9.46692801 6.54229827 10.63380906 2 10 C0.0625 8.9375 0.0625 8.9375 -1 7 C-0.6875 3.3125 -0.6875 3.3125 0 0 Z " fill="#2B2C2B" transform="translate(440,391)"/>
<path d="M0 0 C3 1 3 1 4.1875 3.3125 C5 6 5 6 5 10 C4.34 10 3.68 10 3 10 C2.34 9.34 1.68 8.68 1 8 C0.34 9.65 -0.32 11.3 -1 13 C-1.33 13 -1.66 13 -2 13 C-1.85915204 11.20793453 -1.71216299 9.41635083 -1.5625 7.625 C-1.48128906 6.62726563 -1.40007813 5.62953125 -1.31640625 4.6015625 C-1 2 -1 2 0 0 Z " fill="#606060" transform="translate(525,167)"/>
<path d="M0 0 C2.4375 0.375 2.4375 0.375 5 1 C5.33 1.66 5.66 2.32 6 3 C4.68 3 3.36 3 2 3 C2.33 3.99 2.66 4.98 3 6 C3.12117236 8.26845929 3.17540383 10.54083894 3.1875 12.8125 C3.20167969 14.01519531 3.21585937 15.21789062 3.23046875 16.45703125 C3.00124672 19.98083425 2.27030979 22.72129528 1 26 C0 23 0 23 0.4375 20.9375 C1.76697998 13.99466009 1.02816714 6.94012821 0 0 Z " fill="#6F6F6F" transform="translate(471,72)"/>
<path d="M0 0 C1.45489101 4.47208109 -0.03886361 6.7871885 -2 11 C-2.33 12.010625 -2.66 13.02125 -3 14.0625 C-4.07151985 17.21008956 -5.45882083 20.05774885 -7 23 C-8.1916143 19.42515711 -7.74788456 18.71412118 -6.34765625 15.33203125 C-5.98349609 14.43935547 -5.61933594 13.54667969 -5.24414062 12.62695312 C-4.85419922 11.69818359 -4.46425781 10.76941406 -4.0625 9.8125 C-3.67642578 8.87212891 -3.29035156 7.93175781 -2.89257812 6.96289062 C-1.93678351 4.63830372 -0.97232993 2.31770801 0 0 Z " fill="#747473" transform="translate(256,425)"/>
<path d="M0 0 C8.19256018 -0.4726477 8.19256018 -0.4726477 11.5625 1.5 C12.036875 1.995 12.51125 2.49 13 3 C12.34 4.32 11.68 5.64 11 7 C9.35 6.67 7.7 6.34 6 6 C5.67 5.01 5.34 4.02 5 3 C5.33 2.34 5.66 1.68 6 1 C4.02 1 2.04 1 0 1 C0 0.67 0 0.34 0 0 Z " fill="#262625" transform="translate(320,402)"/>
<path d="M0 0 C3.24961394 5.84930509 3.12793379 11.4753767 3 18 C0.47305151 14.20957727 -1.09464541 10.47351682 -2 6 C-1.1875 2.4375 -1.1875 2.4375 0 0 Z " fill="#323131" transform="translate(446,281)"/>
<path d="M0 0 C3.70839776 2.47226518 4.14398706 4.24969515 5.6875 8.375 C6.12449219 9.51710938 6.56148438 10.65921875 7.01171875 11.8359375 C8 15 8 15 8 19 C5.58981892 16.0031766 3.91085309 12.99429744 2.3125 9.5 C1.87550781 8.5615625 1.43851562 7.623125 0.98828125 6.65625 C0 4 0 4 0 0 Z " fill="#2F2F2F" transform="translate(484,315)"/>
<path d="M0 0 C0.66 0 1.32 0 2 0 C3.5912689 4.873261 4.21192221 8.80790596 4 14 C2.68 13.34 1.36 12.68 0 12 C0 8.04 0 4.08 0 0 Z " fill="#525353" transform="translate(466,305)"/>
<path d="M0 0 C0.66 0.66 1.32 1.32 2 2 C1.7578125 5.2578125 1.7578125 5.2578125 1.125 9.125 C0.92132813 10.40632813 0.71765625 11.68765625 0.5078125 13.0078125 C0.34023438 13.99523437 0.17265625 14.98265625 0 16 C-0.33 16 -0.66 16 -1 16 C-1.66 11.05 -2.32 6.1 -3 1 C-2.01 0.67 -1.02 0.34 0 0 Z " fill="#1F1F1E" transform="translate(438,249)"/>
<path d="M0 0 C0.33 0 0.66 0 1 0 C1.06058594 0.80824219 1.12117188 1.61648438 1.18359375 2.44921875 C1.26738281 3.51785156 1.35117187 4.58648437 1.4375 5.6875 C1.55931641 7.27111328 1.55931641 7.27111328 1.68359375 8.88671875 C1.96451681 11.65086297 2.40156852 14.28945741 3 17 C0.64910301 15.33717042 -0.60065909 14.45014709 -2 12 C-2.19774935 8.24276237 -1.77743132 4.67737355 -1 1 C-0.67 0.67 -0.34 0.34 0 0 Z " fill="#232222" transform="translate(434,348)"/>
<path d="M0 0 C0.99 0.33 1.98 0.66 3 1 C2.49357808 5.35522853 1.61588503 8.44239635 -1 12 C-1.66 12 -2.32 12 -3 12 C-2.68950274 10.56206608 -2.3765224 9.1246682 -2.0625 7.6875 C-1.88847656 6.88699219 -1.71445313 6.08648438 -1.53515625 5.26171875 C-1 3 -1 3 0 0 Z " fill="#2C2C2C" transform="translate(224,549)"/>
<path d="M0 0 C1.31712811 3.62210231 0.68301982 5.67244777 -0.75 9.1875 C-1.26820313 10.50814453 -1.26820313 10.50814453 -1.796875 11.85546875 C-3 14 -3 14 -6 15 C-4.64475824 9.57903298 -2.63365987 4.9221313 0 0 Z " fill="#7C7C7B" transform="translate(315,355)"/>
<path d="M0 0 C1.875 0.3125 1.875 0.3125 4 1 C5.99825961 3.99738941 6.27550398 4.63347508 6.25 8 C6.25515625 8.680625 6.2603125 9.36125 6.265625 10.0625 C6 12 6 12 4 15 C3.93941406 14.22914063 3.87882812 13.45828125 3.81640625 12.6640625 C3.73261719 11.66117188 3.64882813 10.65828125 3.5625 9.625 C3.48128906 8.62726563 3.40007812 7.62953125 3.31640625 6.6015625 C3.15034374 4.02072387 3.15034374 4.02072387 2 2 C1.34 3.65 0.68 5.3 0 7 C-0.66 6.34 -1.32 5.68 -2 5 C-1.34 3.35 -0.68 1.7 0 0 Z " fill="#373636" transform="translate(346,150)"/>
<path d="M0 0 C1.12140434 3.31188082 0.87708979 5.07889197 -0.375 8.3125 C-1.80319656 12.25145308 -2.55749572 15.84045977 -3 20 C-3.99 20.33 -4.98 20.66 -6 21 C-4.55613874 13.78069368 -2.42211826 6.94889267 0 0 Z " fill="#6D6D6C" transform="translate(208,560)"/>
<path d="M0 0 C0.99 0 1.98 0 3 0 C2.25 4.75 2.25 4.75 0 7 C-1.64991582 7.70710678 -3.31562256 8.37943989 -5 9 C-4.3566152 7.686298 -3.71021785 6.37407102 -3.0625 5.0625 C-2.70285156 4.33160156 -2.34320313 3.60070312 -1.97265625 2.84765625 C-1 1 -1 1 0 0 Z " fill="#353636" transform="translate(355,301)"/>
<path d="M0 0 C3.16074555 0.07525585 5.31127067 0.42225796 7.76953125 2.484375 C10.87796996 5.89128206 10.87796996 5.89128206 12 8 C11.66015625 10.23046875 11.66015625 10.23046875 11 12 C9 9 9 9 7.75 6.5 C5.58838314 3.41197591 3.42882243 2.44772503 0 1 C0 0.67 0 0.34 0 0 Z " fill="#1E1E1D" transform="translate(419,272)"/>
<path d="M0 0 C0.66 0 1.32 0 2 0 C2.33 2.97 2.66 5.94 3 9 C2.01 7.68 1.02 6.36 0 5 C-0.99 6.485 -0.99 6.485 -2 8 C-2.66 8 -3.32 8 -4 8 C-2.25 2.25 -2.25 2.25 0 0 Z " fill="#848383" transform="translate(499,127)"/>
<path d="M0 0 C0.33 0 0.66 0 1 0 C1.33 1.98 1.66 3.96 2 6 C2.99 6 3.98 6 5 6 C5 8.31 5 10.62 5 13 C0.17970402 9.14376321 0.17970402 9.14376321 -0.33203125 5.88671875 C-0.3145776 3.92143786 -0.16596091 1.95833873 0 0 Z " fill="#373636" transform="translate(348,172)"/>
<path d="M0 0 C-3.47521793 2.31681195 -5.90896006 2.42581896 -10 3 C-10.721875 3.37125 -11.44375 3.7425 -12.1875 4.125 C-14.52586807 5.25386735 -15.57390589 4.71326162 -18 4 C-16.41800369 3.35089846 -14.83434276 2.70585306 -13.25 2.0625 C-12.36828125 1.70285156 -11.4865625 1.34320313 -10.578125 0.97265625 C-6.58962451 -0.53209621 -4.12612305 -1.32625384 0 0 Z " fill="#6B6B6B" transform="translate(442,121)"/>
<path d="M0 0 C2.96865509 2.54456151 4.3619751 5.48994665 6 9 C5.01 9.99 4.02 10.98 3 12 C2.49166409 10.75336669 1.99368855 9.50250613 1.5 8.25 C1.2215625 7.55390625 0.943125 6.8578125 0.65625 6.140625 C0 4 0 4 0 0 Z " fill="#3C3C3D" transform="translate(390,239)"/>
<path d="M0 0 C0.99 1.0209375 0.99 1.0209375 2 2.0625 C5.49468234 5.56725347 9.25130779 8.77221788 13 12 C12.34 12.66 11.68 13.32 11 14 C9.53238987 12.61392377 8.07625811 11.21568805 6.625 9.8125 C5.81289063 9.03519531 5.00078125 8.25789062 4.1640625 7.45703125 C2.01140148 5.012945 0.99367294 3.07383443 0 0 Z " fill="#1F1F1F" transform="translate(334,236)"/>
<path d="M0 0 C0.33 0.66 0.66 1.32 1 2 C1.66 2.33 2.32 2.66 3 3 C2.01 3 1.02 3 0 3 C-0.66 4.65 -1.32 6.3 -2 8 C-2.66 7.67 -3.32 7.34 -4 7 C-3.67 5.02 -3.34 3.04 -3 1 C-2.01 0.67 -1.02 0.34 0 0 Z " fill="#232424" transform="translate(231,536)"/>
<path d="M0 0 C0.33 0 0.66 0 1 0 C1 3.3 1 6.6 1 10 C0.34 8.68 -0.32 7.36 -1 6 C-1.33 6.66 -1.66 7.32 -2 8 C-2.66 8 -3.32 8 -4 8 C-3.67 6.02 -3.34 4.04 -3 2 C-2.01 2 -1.02 2 0 2 C0 1.34 0 0.68 0 0 Z " fill="#323132" transform="translate(468,315)"/>
<path d="M0 0 C0.33 0 0.66 0 1 0 C1 3.63 1 7.26 1 11 C0.01 10.67 -0.98 10.34 -2 10 C-2.25 3.375 -2.25 3.375 0 0 Z " fill="#292928" transform="translate(431,281)"/>
<path d="M0 0 C0.33 0 0.66 0 1 0 C1.36463732 1.74784829 1.7163078 3.49840502 2.0625 5.25 C2.25972656 6.22453125 2.45695312 7.1990625 2.66015625 8.203125 C2.98397535 10.868119 2.85503199 12.48871723 2 15 C-0.35119399 11.47320901 -0.21443452 9.97120515 -0.125 5.8125 C-0.10695313 4.72582031 -0.08890625 3.63914062 -0.0703125 2.51953125 C-0.04710937 1.68808594 -0.02390625 0.85664063 0 0 Z " fill="#171716" transform="translate(465,335)"/>
<path d="M0 0 C0.66 0 1.32 0 2 0 C2.33 2.97 2.66 5.94 3 9 C-0.06000643 5.93999357 -0.56942344 5.09047728 -1 1 C-0.67 0.67 -0.34 0.34 0 0 Z " fill="#363637" transform="translate(457,266)"/>
<path d="M0 0 C0.66 1.32 1.32 2.64 2 4 C1.54625 4.598125 1.0925 5.19625 0.625 5.8125 C-0.63295913 7.50590652 -1.82984724 9.24477086 -3 11 C-3.32613618 6.32538149 -2.70582788 3.83325617 0 0 Z " fill="#A7A7A8" transform="translate(526,169)"/>
<path d="M0 0 C0.33 0 0.66 0 1 0 C0.75 3.375 0.75 3.375 0 7 C-2.0625 8.4375 -2.0625 8.4375 -4 9 C-2.80100302 5.9168649 -1.52299523 2.93720508 0 0 Z " fill="#8E8E8D" transform="translate(308,370)"/>
<path d="M0 0 C4.41889613 1.35021826 6.34345343 3.26115668 9 7 C6 7 6 7 4.39453125 5.46875 C3.87246094 4.8190625 3.35039062 4.169375 2.8125 3.5 C2.28269531 2.8503125 1.75289063 2.200625 1.20703125 1.53125 C0.80871094 1.0259375 0.41039062 0.520625 0 0 Z " fill="#3E3E3F" transform="translate(422,232)"/>
<path d="M0 0 C2 3 2 3 1.625 5.6875 C1.41875 6.450625 1.2125 7.21375 1 8 C0.34 8 -0.32 8 -1 8 C-1.33 8.66 -1.66 9.32 -2 10 C-1.34 6.7 -0.68 3.4 0 0 Z " fill="#888887" transform="translate(199,587)"/>
<path d="M0 0 C0.33 0.66 0.66 1.32 1 2 C-0.25 4.5625 -0.25 4.5625 -2 7 C-2.99 7.33 -3.98 7.66 -5 8 C-3.8141763 4.62496331 -2.72426311 2.35277269 0 0 Z " fill="#929191" transform="translate(265,412)"/>
<path d="M0 0 C0.66 0 1.32 0 2 0 C2 2.97 2 5.94 2 9 C0.05276405 6.07914607 -0.55175352 4.40667322 -1 1 C-0.67 0.67 -0.34 0.34 0 0 Z " fill="#292828" transform="translate(447,290)"/>
<path d="" fill="#161616" transform="translate(0,0)"/>
<path d="" fill="#151615" transform="translate(0,0)"/>
<path d="" fill="#181817" transform="translate(0,0)"/>
<path d="" fill="#151514" transform="translate(0,0)"/>
</svg>
